<mxfile host="app.diagrams.net" modified="2024-04-01T19:26:18.310Z" agent="Mozilla/5.0 (Windows NT 10.0; Win64; x64; rv:124.0) Gecko/20100101 Firefox/124.0" etag="2pzRKoNeiFQUUC_DCMLO" version="24.2.1" type="github">
  <diagram name="Page-1" id="74e2e168-ea6b-b213-b513-2b3c1d86103e">
    <mxGraphModel dx="1156" dy="493" grid="1" gridSize="10" guides="1" tooltips="1" connect="1" arrows="1" fold="1" page="1" pageScale="1" pageWidth="1100" pageHeight="850" background="none" math="0" shadow="0">
      <root>
        <mxCell id="0" />
        <mxCell id="1" parent="0" />
        <mxCell id="vhPZ33AXLJRJ0YqIWIpf-2" style="edgeStyle=orthogonalEdgeStyle;rounded=0;orthogonalLoop=1;jettySize=auto;html=1;dashed=1;" edge="1" parent="1" source="vhPZ33AXLJRJ0YqIWIpf-1" target="vhPZ33AXLJRJ0YqIWIpf-3">
          <mxGeometry relative="1" as="geometry">
            <mxPoint x="430" y="70" as="targetPoint" />
          </mxGeometry>
        </mxCell>
        <mxCell id="vhPZ33AXLJRJ0YqIWIpf-1" value="Clothing Input Data" style="rounded=1;whiteSpace=wrap;html=1;" vertex="1" parent="1">
          <mxGeometry x="180" y="50" width="120" height="60" as="geometry" />
        </mxCell>
        <mxCell id="vhPZ33AXLJRJ0YqIWIpf-4" style="edgeStyle=orthogonalEdgeStyle;rounded=0;orthogonalLoop=1;jettySize=auto;html=1;" edge="1" parent="1" source="vhPZ33AXLJRJ0YqIWIpf-3">
          <mxGeometry relative="1" as="geometry">
            <mxPoint x="430" y="190" as="targetPoint" />
          </mxGeometry>
        </mxCell>
        <mxCell id="vhPZ33AXLJRJ0YqIWIpf-3" value="Data Storage" style="shape=cylinder3;whiteSpace=wrap;html=1;boundedLbl=1;backgroundOutline=1;size=15;" vertex="1" parent="1">
          <mxGeometry x="400" y="50" width="60" height="60" as="geometry" />
        </mxCell>
        <mxCell id="vhPZ33AXLJRJ0YqIWIpf-6" style="edgeStyle=orthogonalEdgeStyle;rounded=0;orthogonalLoop=1;jettySize=auto;html=1;" edge="1" parent="1" source="vhPZ33AXLJRJ0YqIWIpf-5">
          <mxGeometry relative="1" as="geometry">
            <mxPoint x="430" y="280" as="targetPoint" />
          </mxGeometry>
        </mxCell>
        <mxCell id="vhPZ33AXLJRJ0YqIWIpf-5" value="Reshape and Normalize Data" style="rounded=1;whiteSpace=wrap;html=1;" vertex="1" parent="1">
          <mxGeometry x="370" y="150" width="120" height="60" as="geometry" />
        </mxCell>
        <mxCell id="vhPZ33AXLJRJ0YqIWIpf-9" style="edgeStyle=orthogonalEdgeStyle;rounded=0;orthogonalLoop=1;jettySize=auto;html=1;entryX=1;entryY=0;entryDx=0;entryDy=37.5;entryPerimeter=0;exitX=1;exitY=0.5;exitDx=0;exitDy=0;dashed=1;" edge="1" parent="1" source="vhPZ33AXLJRJ0YqIWIpf-8" target="vhPZ33AXLJRJ0YqIWIpf-3">
          <mxGeometry relative="1" as="geometry">
            <mxPoint x="590" y="70" as="targetPoint" />
            <Array as="points">
              <mxPoint x="540" y="310" />
              <mxPoint x="540" y="88" />
            </Array>
          </mxGeometry>
        </mxCell>
        <mxCell id="vhPZ33AXLJRJ0YqIWIpf-10" value="Store Models" style="edgeLabel;html=1;align=center;verticalAlign=middle;resizable=0;points=[];" vertex="1" connectable="0" parent="vhPZ33AXLJRJ0YqIWIpf-9">
          <mxGeometry x="-0.1191" y="-2" relative="1" as="geometry">
            <mxPoint as="offset" />
          </mxGeometry>
        </mxCell>
        <mxCell id="vhPZ33AXLJRJ0YqIWIpf-11" style="edgeStyle=orthogonalEdgeStyle;rounded=0;orthogonalLoop=1;jettySize=auto;html=1;dashed=1;entryX=0.5;entryY=1;entryDx=0;entryDy=0;" edge="1" parent="1" source="vhPZ33AXLJRJ0YqIWIpf-8" target="vhPZ33AXLJRJ0YqIWIpf-13">
          <mxGeometry relative="1" as="geometry">
            <mxPoint x="250" y="310" as="targetPoint" />
          </mxGeometry>
        </mxCell>
        <mxCell id="vhPZ33AXLJRJ0YqIWIpf-25" style="edgeStyle=orthogonalEdgeStyle;rounded=0;orthogonalLoop=1;jettySize=auto;html=1;dashed=1;entryX=0.5;entryY=0;entryDx=0;entryDy=0;" edge="1" parent="1" source="vhPZ33AXLJRJ0YqIWIpf-8" target="vhPZ33AXLJRJ0YqIWIpf-26">
          <mxGeometry relative="1" as="geometry">
            <mxPoint x="429.9999999999998" y="399.9999999999999" as="targetPoint" />
          </mxGeometry>
        </mxCell>
        <mxCell id="vhPZ33AXLJRJ0YqIWIpf-8" value="Model Training" style="rounded=1;whiteSpace=wrap;html=1;" vertex="1" parent="1">
          <mxGeometry x="370" y="250" width="120" height="60" as="geometry" />
        </mxCell>
        <mxCell id="vhPZ33AXLJRJ0YqIWIpf-14" style="edgeStyle=orthogonalEdgeStyle;rounded=0;orthogonalLoop=1;jettySize=auto;html=1;" edge="1" parent="1" source="vhPZ33AXLJRJ0YqIWIpf-13" target="vhPZ33AXLJRJ0YqIWIpf-15">
          <mxGeometry relative="1" as="geometry">
            <mxPoint x="250" y="160" as="targetPoint" />
          </mxGeometry>
        </mxCell>
        <mxCell id="vhPZ33AXLJRJ0YqIWIpf-13" value="Trained Model Selection" style="rounded=1;whiteSpace=wrap;html=1;" vertex="1" parent="1">
          <mxGeometry x="220" y="160" width="120" height="60" as="geometry" />
        </mxCell>
        <mxCell id="vhPZ33AXLJRJ0YqIWIpf-15" value="Outfit Recommendations" style="rounded=1;whiteSpace=wrap;html=1;" vertex="1" parent="1">
          <mxGeometry x="60" y="160" width="120" height="60" as="geometry" />
        </mxCell>
        <mxCell id="vhPZ33AXLJRJ0YqIWIpf-20" style="edgeStyle=orthogonalEdgeStyle;rounded=0;orthogonalLoop=1;jettySize=auto;html=1;entryX=0;entryY=0.5;entryDx=0;entryDy=0;" edge="1" parent="1" source="vhPZ33AXLJRJ0YqIWIpf-16" target="vhPZ33AXLJRJ0YqIWIpf-1">
          <mxGeometry relative="1" as="geometry" />
        </mxCell>
        <mxCell id="vhPZ33AXLJRJ0YqIWIpf-22" style="edgeStyle=orthogonalEdgeStyle;rounded=0;orthogonalLoop=1;jettySize=auto;html=1;entryX=0;entryY=0.5;entryDx=0;entryDy=0;" edge="1" parent="1" source="vhPZ33AXLJRJ0YqIWIpf-16" target="vhPZ33AXLJRJ0YqIWIpf-15">
          <mxGeometry relative="1" as="geometry">
            <mxPoint x="60" y="160" as="targetPoint" />
            <Array as="points">
              <mxPoint x="30" y="80" />
              <mxPoint x="30" y="190" />
            </Array>
          </mxGeometry>
        </mxCell>
        <mxCell id="vhPZ33AXLJRJ0YqIWIpf-16" value="User" style="shape=umlActor;verticalLabelPosition=bottom;verticalAlign=top;html=1;outlineConnect=0;" vertex="1" parent="1">
          <mxGeometry x="90" y="50" width="30" height="60" as="geometry" />
        </mxCell>
        <mxCell id="vhPZ33AXLJRJ0YqIWIpf-23" value="Pinterest Clothing Content" style="rounded=1;whiteSpace=wrap;html=1;" vertex="1" parent="1">
          <mxGeometry x="480" width="120" height="60" as="geometry" />
        </mxCell>
        <mxCell id="vhPZ33AXLJRJ0YqIWIpf-24" style="edgeStyle=orthogonalEdgeStyle;rounded=0;orthogonalLoop=1;jettySize=auto;html=1;entryX=0.5;entryY=0;entryDx=0;entryDy=0;entryPerimeter=0;dashed=1;" edge="1" parent="1" source="vhPZ33AXLJRJ0YqIWIpf-23" target="vhPZ33AXLJRJ0YqIWIpf-3">
          <mxGeometry relative="1" as="geometry" />
        </mxCell>
        <mxCell id="vhPZ33AXLJRJ0YqIWIpf-26" value="Model Data Analysis" style="rounded=1;whiteSpace=wrap;html=1;" vertex="1" parent="1">
          <mxGeometry x="370" y="350" width="120" height="60" as="geometry" />
        </mxCell>
        <mxCell id="vhPZ33AXLJRJ0YqIWIpf-31" style="edgeStyle=orthogonalEdgeStyle;rounded=0;orthogonalLoop=1;jettySize=auto;html=1;" edge="1" parent="1" source="vhPZ33AXLJRJ0YqIWIpf-30" target="vhPZ33AXLJRJ0YqIWIpf-26">
          <mxGeometry relative="1" as="geometry" />
        </mxCell>
        <mxCell id="vhPZ33AXLJRJ0YqIWIpf-30" value="Developer" style="shape=umlActor;verticalLabelPosition=bottom;verticalAlign=top;html=1;outlineConnect=0;" vertex="1" parent="1">
          <mxGeometry x="560" y="350" width="30" height="60" as="geometry" />
        </mxCell>
      </root>
    </mxGraphModel>
  </diagram>
</mxfile>
